# xmcd
#
# Track frame offsets: 
#        150
#        28348
#        54444
#        73102
#        90403
#        114049
#        144740
#        162026
#        189850
#        206242
#        236786
#        266150
#
# Disc length: 3873 seconds
#
# Revision: 2
# Processed by: cddbd v1.5.2PL0 Copyright (c) Steve Scherf et al.
# Submitted via: ExactAudioCopyFreeDBPlugin 1.0
#
DISCID=a80f1f0c
DTITLE=Joanne Shaw Taylor - Almost Always Never
DYEAR=2012
DGENRE=Blues
TTITLE0=Soul Station
TTITLE1=Beautifully Broken
TTITLE2=You Should Stay, I Should Go
TTITLE3=Piece Of The Sky
TTITLE4=Army Of One
TTITLE5=Jealousy
TTITLE6=Almost Always Never
TTITLE7=Tied and Bound
TTITLE8=A Hand In Love
TTITLE9=Standing To Fall
TTITLE10=Maybe Tomorrow
TTITLE11=Lose Myself To Loving You
EXTD=Year: 2012\n\n\n\n\n\n                                           
EXTD=  http://joanneshawtaylor.com
EXTT0=
EXTT1=
EXTT2=
EXTT3=
EXTT4=
EXTT5=
EXTT6=
EXTT7=
EXTT8=
EXTT9=
EXTT10=
EXTT11=
PLAYORDER=
